<svg width="36" height="36" viewBox="0 0 36 36" fill="none" xmlns="http://www.w3.org/2000/svg">
<g clip-path="url(#clip0_65_1524)">
<path d="M18 36C13.192 36 8.67185 34.1276 5.27203 30.728C1.87235 27.3281 0 22.808 0 18C0 13.192 1.87235 8.67185 5.27203 5.27203C8.67185 1.87235 13.192 0 18 0C22.808 0 27.3281 1.87235 30.728 5.27203C34.1276 8.67185 36 13.192 36 18C36 22.808 34.1276 27.3281 30.728 30.728C27.3281 34.1276 22.808 36 18 36ZM18 2.8125C13.9432 2.8125 10.1294 4.39228 7.26082 7.26082C4.39228 10.1294 2.8125 13.9432 2.8125 18C2.8125 22.0567 4.39228 25.8706 7.26082 28.7392C10.1294 31.6077 13.9432 33.1875 18 33.1875C22.0567 33.1875 25.8706 31.6077 28.7392 28.7392C31.6077 25.8706 33.1875 22.0567 33.1875 18C33.1875 13.9432 31.6077 10.1294 28.7392 7.26082C25.8706 4.39228 22.0567 2.8125 18 2.8125ZM23.9662 25.9549L18 19.9887L12.0338 25.9549L10.0451 23.9662L16.0113 18L10.0451 12.0338L12.0338 10.0451L18 16.0113L23.9662 10.0451L25.955 12.0338L19.9887 18L25.955 23.9662L23.9662 25.9549Z" fill="#ED8C00"/>
</g>
<defs>
<clipPath id="clip0_65_1524">
<rect width="36" height="36" fill="white"/>
</clipPath>
</defs>
</svg>
