<svg width="36" height="36" viewBox="0 0 36 36" fill="none" xmlns="http://www.w3.org/2000/svg">
<g clip-path="url(#clip0_65_1641)">
<path d="M34.5938 16.5937H4.81233L9.74574 11.6842C10.2962 11.1364 10.2983 10.246 9.75045 9.69553C9.20257 9.14498 8.31213 9.14294 7.76166 9.69075L0.413719 17.0032C0.413227 17.0037 0.412875 17.0042 0.412453 17.0046C-0.136617 17.5525 -0.138375 18.4457 0.412312 18.9954C0.412805 18.9958 0.413156 18.9963 0.413578 18.9967L7.76152 26.3092C8.31192 26.857 9.20236 26.8551 9.75031 26.3045C10.2982 25.754 10.2961 24.8636 9.74559 24.3157L4.81233 19.4062H34.5938C35.3704 19.4062 36 18.7767 36 18C36 17.2233 35.3704 16.5937 34.5938 16.5937Z" fill="#004D47"/>
</g>
<defs>
<clipPath id="clip0_65_1641">
<rect width="36" height="36" fill="white"/>
</clipPath>
</defs>
</svg>
