<svg width="36" height="37" viewBox="0 0 36 37" fill="none" xmlns="http://www.w3.org/2000/svg">
<path d="M28.5 6.5H7.5C6.30653 6.5 5.16193 6.97411 4.31802 7.81802C3.47411 8.66193 3 9.80653 3 11V26C3 27.1935 3.47411 28.3381 4.31802 29.182C5.16193 30.0259 6.30653 30.5 7.5 30.5H28.5C29.6935 30.5 30.8381 30.0259 31.682 29.182C32.5259 28.3381 33 27.1935 33 26V11C33 9.80653 32.5259 8.66193 31.682 7.81802C30.8381 6.97411 29.6935 6.5 28.5 6.5ZM27.495 9.5L18 16.625L8.505 9.5H27.495ZM28.5 27.5H7.5C7.10218 27.5 6.72064 27.342 6.43934 27.0607C6.15804 26.7794 6 26.3978 6 26V11.375L17.1 19.7C17.3596 19.8947 17.6754 20 18 20C18.3246 20 18.6404 19.8947 18.9 19.7L30 11.375V26C30 26.3978 29.842 26.7794 29.5607 27.0607C29.2794 27.342 28.8978 27.5 28.5 27.5Z" fill="#004D47"/>
</svg>
