<svg width="36" height="37" viewBox="0 0 36 37" fill="none" xmlns="http://www.w3.org/2000/svg">
<path d="M18 20C17.5433 19.9947 17.096 20.1294 16.7182 20.386C16.3404 20.6426 16.0502 21.0087 15.8868 21.4352C15.7234 21.8617 15.6946 22.328 15.8042 22.7713C15.9139 23.2147 16.1567 23.6138 16.5 23.915V26C16.5 26.3978 16.658 26.7794 16.9393 27.0607C17.2206 27.342 17.6022 27.5 18 27.5C18.3978 27.5 18.7794 27.342 19.0607 27.0607C19.342 26.7794 19.5 26.3978 19.5 26V23.915C19.8433 23.6138 20.0861 23.2147 20.1958 22.7713C20.3054 22.328 20.2766 21.8617 20.1132 21.4352C19.9498 21.0087 19.6596 20.6426 19.2818 20.386C18.904 20.1294 18.4567 19.9947 18 20ZM25.5 14V11C25.5 9.01088 24.7098 7.10322 23.3033 5.6967C21.8968 4.29018 19.9891 3.5 18 3.5C16.0109 3.5 14.1032 4.29018 12.6967 5.6967C11.2902 7.10322 10.5 9.01088 10.5 11V14C9.30653 14 8.16193 14.4741 7.31802 15.318C6.47411 16.1619 6 17.3065 6 18.5V29C6 30.1935 6.47411 31.3381 7.31802 32.182C8.16193 33.0259 9.30653 33.5 10.5 33.5H25.5C26.6935 33.5 27.8381 33.0259 28.682 32.182C29.5259 31.3381 30 30.1935 30 29V18.5C30 17.3065 29.5259 16.1619 28.682 15.318C27.8381 14.4741 26.6935 14 25.5 14ZM13.5 11C13.5 9.80653 13.9741 8.66193 14.818 7.81802C15.6619 6.97411 16.8065 6.5 18 6.5C19.1935 6.5 20.3381 6.97411 21.182 7.81802C22.0259 8.66193 22.5 9.80653 22.5 11V14H13.5V11ZM27 29C27 29.3978 26.842 29.7794 26.5607 30.0607C26.2794 30.342 25.8978 30.5 25.5 30.5H10.5C10.1022 30.5 9.72064 30.342 9.43934 30.0607C9.15804 29.7794 9 29.3978 9 29V18.5C9 18.1022 9.15804 17.7206 9.43934 17.4393C9.72064 17.158 10.1022 17 10.5 17H25.5C25.8978 17 26.2794 17.158 26.5607 17.4393C26.842 17.7206 27 18.1022 27 18.5V29Z" fill="#004D47"/>
</svg>
