<svg width="37" height="36" viewBox="0 0 37 36" fill="none" xmlns="http://www.w3.org/2000/svg">
<g clip-path="url(#clip0_105_7109)">
<path d="M8.47836 21.7552L7.22525 26.4332L2.64516 26.5301C1.27639 23.9914 0.5 21.0867 0.5 18C0.5 15.0151 1.22591 12.2004 2.51262 9.72192H2.51361L6.59117 10.4695L8.37739 14.5226C8.00354 15.6125 7.79977 16.7825 7.79977 18C7.79991 19.3213 8.03926 20.5872 8.47836 21.7552Z" fill="#FBBB00"/>
<path d="M36.1853 14.6375C36.392 15.7263 36.4998 16.8508 36.4998 18.0001C36.4998 19.2888 36.3643 20.5458 36.1062 21.7583C35.2299 25.8845 32.9404 29.4875 29.7686 32.0371L29.7676 32.0361L24.6317 31.7741L23.9049 27.2365C26.0094 26.0022 27.6542 24.0706 28.5206 21.7583H18.8955V14.6375H28.661H36.1853Z" fill="#518EF8"/>
<path d="M29.7676 32.0361L29.7686 32.0371C26.6839 34.5165 22.7654 36.0001 18.4999 36.0001C11.645 36.0001 5.68526 32.1687 2.64502 26.5303L8.47821 21.7554C9.9983 25.8123 13.9118 28.7002 18.4999 28.7002C20.4719 28.7002 22.3194 28.1671 23.9048 27.2364L29.7676 32.0361Z" fill="#28B446"/>
<path d="M29.9894 4.14394L24.1582 8.91788C22.5174 7.8923 20.5779 7.29984 18.5001 7.29984C13.8082 7.29984 9.82147 10.3203 8.37753 14.5226L2.51368 9.72197H2.5127C5.50843 3.94615 11.5434 0 18.5001 0C22.8675 0 26.872 1.55573 29.9894 4.14394Z" fill="#F14336"/>
</g>
<defs>
<clipPath id="clip0_105_7109">
<rect width="36" height="36" fill="white" transform="translate(0.5)"/>
</clipPath>
</defs>
</svg>
