<svg width="31" height="36" viewBox="0 0 31 36" fill="none" xmlns="http://www.w3.org/2000/svg">
<g clip-path="url(#clip0_46_188)">
<path d="M16.0222 14.7707L14.225 14.6022C11.6416 14.3775 9.28275 16.287 9.05811 18.8705L10.069 33.1357C10.069 33.248 13.1018 36 13.2141 36L16.3592 34.5398C17.0331 34.3151 17.5948 33.8097 17.8756 33.1357L20.3467 19.8814C20.5714 17.298 18.6618 14.9953 16.0222 14.7707Z" fill="#ED8C00"/>
<path d="M29.782 11.1201L29.0519 9.94072C27.9848 8.25585 25.7945 7.75039 24.1097 8.81747L21.8632 10.9516C21.7508 11.0078 21.5262 14.0406 21.5824 14.1529L24.4466 16.2309C25.0082 16.6802 25.7945 16.7925 26.4685 16.624L28.6026 16.0624C30.2875 14.9953 30.793 12.805 29.782 11.1201Z" fill="#ED8C00"/>
<path d="M15.1798 0.0561547L13.3826 0.393128C10.7992 0.842426 9.05815 3.31357 9.56361 5.89703L11.1361 9.71606C11.1361 9.82839 14.7867 11.6817 14.899 11.6256L19.1673 8.98595C19.7851 8.59282 20.1783 7.97503 20.2906 7.24492L20.6837 3.93135C20.1783 1.34789 17.7633 -0.393143 15.1798 0.0561547Z" fill="#ED8C00"/>
<path d="M2.03794 8.59282L1.19551 9.6599C-0.0400588 11.2324 0.240753 13.4789 1.75713 14.6583L3.83514 15.6693C4.3406 15.8939 4.90222 15.9501 5.46384 15.8377C6.36244 15.6131 7.59801 15.2761 7.65417 15.22L8.9459 10.727L7.03638 7.97503C5.46384 6.73946 3.21735 7.02028 2.03794 8.59282Z" fill="#ED8C00"/>
</g>
<defs>
<clipPath id="clip0_46_188">
<rect width="29.9345" height="36" fill="white" transform="translate(0.40918)"/>
</clipPath>
</defs>
</svg>
