<svg width="24" height="23" viewBox="0 0 24 23" fill="none" xmlns="http://www.w3.org/2000/svg">
<g clip-path="url(#clip0_68_188)">
<path d="M20.766 6.81915C21.4468 5.5 20.9362 3.88298 19.617 3.15957L18.7234 2.69149C17.4043 2.01064 15.7873 2.52127 15.0638 3.84042L14.4255 6.09574C14.383 6.18085 15.4043 8.26595 15.4468 8.26595L18.0851 8.56383C18.6383 8.60638 19.149 8.43617 19.5745 8.05319L20.766 6.81915Z" fill="#ED8C00"/>
<path d="M23.1489 11.8404C22.4681 10.9043 21.1915 10.6915 20.2979 11.3723L19.1064 12.6915C19.0638 12.734 19.0213 14.4787 19.0638 14.5213L20.766 15.6277C21.1064 15.8404 21.5319 15.9255 21.9574 15.7553L23.1489 15.3298C24.0851 14.6489 24.2979 13.3723 23.617 12.4787L23.1489 11.8404Z" fill="#ED8C00"/>
<path d="M11.8723 5.84043C12.1276 5.37234 12.1702 4.77659 11.9149 4.26596L10.9362 1.96808C9.65956 0.43617 7.36168 0.265957 5.87232 1.54255L4.80849 2.43617C3.27658 3.71276 3.10637 6.01064 4.38296 7.5L6.85105 9.41489C6.93615 9.5 9.99998 9.28723 10.0425 9.24468L11.8723 5.84043Z" fill="#ED8C00"/>
<path d="M3.19149 10.2234C1.70213 10.0106 0.340424 11.0745 0.170211 12.5638L0.0425519 13.5851C-0.170214 15.0745 0.893616 16.4362 2.38298 16.6064L4.08511 16.4787C4.51064 16.4362 4.89362 16.266 5.23404 15.9681C5.74468 15.4574 6.42553 14.7766 6.42553 14.734L5.57447 11.3298L3.19149 10.2234Z" fill="#ED8C00"/>
<path d="M16.2553 13.1596C14.6383 11.5 11.3617 11.4574 11.2766 11.5426L8.76596 14.0532C7.23404 15.883 7.48936 18.6489 9.31915 20.1809L10.5957 21.2447C12.4255 22.7766 15.1915 22.5213 16.7234 20.6915L17.9149 17.883C18.1702 17.2872 18.1277 16.5638 17.8298 16.0106L16.2553 13.1596Z" fill="#ED8C00"/>
</g>
<defs>
<clipPath id="clip0_68_188">
<rect width="24" height="21.617" fill="white" transform="translate(0 0.69149)"/>
</clipPath>
</defs>
</svg>
