<svg width="24" height="25" viewBox="0 0 24 25" fill="none" xmlns="http://www.w3.org/2000/svg">
<g clip-path="url(#clip0_68_186)">
<path d="M20.4853 4.01469C18.2188 1.74823 15.2053 0.5 12 0.5C8.79469 0.5 5.78123 1.74823 3.51469 4.01469C1.24823 6.28123 0 9.29469 0 12.5C0 15.7053 1.24823 18.7188 3.51469 20.9853C5.78123 23.2518 8.79469 24.5 12 24.5C15.2053 24.5 18.2188 23.2518 20.4853 20.9853C22.7518 18.7188 24 15.7053 24 12.5C24 9.29469 22.7518 6.28123 20.4853 4.01469ZM19.4909 5.00909C21.4918 7.01 22.5938 9.6703 22.5938 12.5C22.5938 15.094 21.6671 17.5453 19.9714 19.4771L16.8735 16.3792C17.0755 15.9064 17.2106 15.3984 17.267 14.8672H19.6807V13.4609H17.2294C17.1776 13.1387 17.0966 12.8262 16.9893 12.5261C17.995 12.1455 18.8117 11.3571 19.2207 10.3505L17.9178 9.82128C17.6356 10.516 17.0488 11.0475 16.3345 11.2638C16.0388 10.8435 15.6837 10.4679 15.2812 10.1495V8.96248C15.2812 8.05475 14.8915 7.24503 14.2855 6.72055L15.2277 5.77841L14.2333 4.78405L12.9031 6.11427C12.823 6.1062 12.7421 6.10152 12.6601 6.10152H11.34C11.258 6.10152 11.1771 6.1062 11.097 6.11427L9.76678 4.78405L8.77242 5.77841L9.71456 6.72055C9.26161 7.11261 8.92997 7.664 8.79122 8.29677L5.02298 4.52853C6.95475 2.83288 9.40598 1.90625 12 1.90625C14.8297 1.90625 17.49 3.00819 19.4909 5.00909ZM4.50909 19.9909C2.50819 17.99 1.40625 15.3297 1.40625 12.5C1.40625 9.90598 2.33288 7.4547 4.02858 5.52289L8.68355 10.1779C8.29566 10.4902 7.95253 10.8559 7.66547 11.2638C6.95119 11.0475 6.36441 10.5161 6.08217 9.82133L4.77933 10.3506C5.18827 11.3571 6.00502 12.1455 7.01072 12.5261C6.90342 12.8263 6.82247 13.1388 6.77067 13.461H4.3193V14.8672H6.73303C6.76828 15.1997 6.83456 15.5231 6.92869 15.8345C5.96077 16.2262 5.17706 16.9986 4.77933 17.9776L6.08217 18.5068C6.34402 17.8623 6.86794 17.358 7.51266 17.1158C8.45063 18.6078 10.1113 19.6016 12 19.6016C13.6663 19.6016 15.1551 18.8279 16.1268 17.6212L18.9771 20.4715C17.0452 22.1671 14.594 23.0938 12 23.0938C9.1703 23.0938 6.51 21.9918 4.50909 19.9909Z" fill="#ED8C00"/>
</g>
<defs>
<clipPath id="clip0_68_186">
<rect width="24" height="24" fill="white" transform="translate(0 0.5)"/>
</clipPath>
</defs>
</svg>
