<svg width="23" height="24" viewBox="0 0 23 24" fill="none" xmlns="http://www.w3.org/2000/svg">
<g clip-path="url(#clip0_68_204)">
<path d="M4.00151 15.0052C4.41833 14.9637 4.79347 14.7979 5.12693 14.5078C5.62712 14.0104 6.29404 13.3471 6.29404 13.3057L5.46039 9.98963L3.20954 8.95336C1.75065 8.74611 0.416813 9.78238 0.250084 11.2332L0.125036 12.228C-1.11908e-05 13.2642 0.458496 14.2591 1.29215 14.7979C1.91738 15.3782 2.79271 15.5026 3.543 15.1295L4.00151 15.0052Z" fill="#ED8C00"/>
<path d="M17.4233 7.6684C17.9652 7.70985 18.4654 7.54404 18.8822 7.17099L20.0493 6.01037C20.7162 4.72539 20.216 3.15026 18.9239 2.4456L18.0069 1.98964C16.7147 1.32643 15.1308 1.82384 14.4222 3.10881L13.7969 5.3057C13.7552 5.3886 14.7556 7.41969 14.7973 7.41969L17.4233 7.6684Z" fill="#ED8C00"/>
<path d="M22.3835 11.1088L21.925 10.4871C21.258 9.57513 20.0076 9.36788 19.1322 10.0311L17.9234 11.2746C17.8818 11.3161 17.8401 13.0155 17.8818 13.057L19.5491 14.1347C19.8825 14.342 20.2993 14.4249 20.7162 14.2591L21.8833 13.8446C22.8003 13.2643 23.0087 11.9793 22.3835 11.1088Z" fill="#ED8C00"/>
<path d="M14.0886 12.0622L13.5051 10.4456C13.5051 10.4042 12.0045 9.57513 11.9212 9.57513L10.1705 10.5285C9.79536 10.7358 9.58694 11.0674 9.50358 11.4819L9.29517 12.7254C9.42021 13.8031 10.4623 14.5907 11.546 14.4249L12.2963 14.342C13.4634 14.1762 14.2554 13.1814 14.0886 12.0622Z" fill="#ED8C00"/>
<path d="M6.3774 8.49741C6.46077 8.58032 9.46191 8.37306 9.50359 8.33161L11.2543 5.01555C11.5043 4.55959 11.546 3.97928 11.2959 3.48187L10.3789 1.24353C9.12845 -0.248699 6.87759 -0.414502 5.41871 0.829021L4.37665 1.69949C2.87608 2.94301 2.70935 5.18135 3.95982 6.63213L6.3774 8.49741Z" fill="#ED8C00"/>
<path d="M6.29403 16.3316C5.75216 16.2902 5.25197 16.456 4.83515 16.829L3.66804 17.9896C3.00112 19.2746 3.50131 20.8497 4.79347 21.5544L5.71048 22.0104C7.00264 22.6736 8.58657 22.1762 9.29517 20.8912L9.92041 18.6943C9.96209 18.6114 8.96171 16.5803 8.92003 16.5803L6.29403 16.3316Z" fill="#ED8C00"/>
<path d="M17.3399 15.5026C17.2565 15.4197 14.2554 15.6269 14.2137 15.6684L12.4631 18.9845C12.213 19.4404 12.1713 20.0207 12.4214 20.5181L13.3801 22.7565C14.6306 24.2487 16.8814 24.4145 18.3403 23.171L19.3824 22.3005C20.8829 21.057 21.0497 18.8186 19.7992 17.3679L17.3399 15.5026Z" fill="#ED8C00"/>
</g>
<defs>
<clipPath id="clip0_68_204">
<rect width="22.7586" height="24" fill="white"/>
</clipPath>
</defs>
</svg>
