<svg width="16" height="25" viewBox="0 0 16 25" fill="none" xmlns="http://www.w3.org/2000/svg">
<g clip-path="url(#clip0_68_201)">
<path d="M13.5605 10.8318C13.5605 10.7242 11.1928 9.48655 9.63229 8.73319C10.278 7.76458 10.9776 6.41929 11.5695 4.85875C12.8072 1.52242 12.4843 0.876684 11.5695 0.553814C11.3004 0.446191 10.2242 0.661437 9.84753 0.984307C8.93274 1.79148 9.14798 1.25337 8.23318 3.62108C7.96413 4.37444 7.74888 5.12781 7.53363 5.82736C6.02691 3.08296 4.19731 1.25337 3.44395 1.68386C2.69058 2.06054 3.33632 4.75112 4.89686 7.60314C5.38117 8.46413 5.70404 9.05606 5.97309 9.48655L2.15247 11.8543C1.29148 12.3924 0.699552 13.3072 0.591928 14.2758L0 18.9574C0.64574 22.5628 4.08969 25.0381 7.74888 24.3924L10.278 23.9619C13.9372 23.3161 16.3587 19.8722 15.713 16.213L13.5605 10.8318Z" fill="#ED8C00"/>
</g>
<defs>
<clipPath id="clip0_68_201">
<rect width="15.8206" height="24" fill="white" transform="translate(0 0.5)"/>
</clipPath>
</defs>
</svg>
