<svg width="48" height="40" viewBox="0 0 48 40" fill="none" xmlns="http://www.w3.org/2000/svg">
<g clip-path="url(#clip0_89_5060)">
<path d="M33.5 5.74971L31.5 2.34971C28.9 -0.0502867 24.9 0.149713 22.5 2.74971L20.8 4.54971C18.4 7.14971 18.6 11.1497 21.2 13.5497L25.9 16.3497C26 16.4497 31.4 15.4497 31.5 15.3497L33.7 9.44971C34.2 8.14971 34.1 6.84971 33.5 5.74971Z" fill="#ED8C00"/>
<path d="M38.5 17.4509L36.2 18.3509C32.9 19.6509 31.2 23.3509 32.5 26.6509L35.5 31.3509C35.6 31.5509 40.8 33.0509 41 32.9509L45.7 28.6509C46.7 27.7509 47.2 26.5509 47.1 25.2509L46.8 21.2509C45.5 17.8509 41.8 16.2509 38.5 17.4509Z" fill="#ED8C00"/>
<path d="M14.2 20.5509C13.3 19.6509 12 19.2509 10.7 19.4509L4.80002 20.3509C0.600018 22.3509 -1.19998 27.4509 0.800017 31.6509L2.20002 34.5509C4.20002 38.7509 9.30002 40.5509 13.5 38.5509L19.3 34.0509C19.5 33.9509 20.9 26.8509 20.8 26.6509L14.2 20.5509Z" fill="#ED8C00"/>
</g>
<defs>
<clipPath id="clip0_89_5060">
<rect width="47.1" height="38.7" fill="white" transform="translate(0 0.650391)"/>
</clipPath>
</defs>
</svg>
