<svg width="20" height="25" viewBox="0 0 20 25" fill="none" xmlns="http://www.w3.org/2000/svg">
<g clip-path="url(#clip0_68_213)">
<path d="M17.8261 7.1087C17.8261 7.1087 14.5652 9.23913 11.913 11.6739C11.6522 5.93478 9.9565 0.5 9.9565 0.5C9.9565 0.5 8.82607 0.5 8.52172 1.19565C7.73911 3.02174 7.43476 7.23913 7.30433 11.413C4.73911 9.06522 1.65216 7.06522 1.65216 7.06522C1.65216 7.06522 0.347807 7.28261 0.130416 7.45652C-0.652193 8.19565 2.08694 11.4565 5.69563 15.2391C6.26085 15.8478 6.78259 16.3261 7.26085 16.6739C7.52172 20.3696 8.34781 23.5 8.34781 23.5C8.34781 23.5 9.69563 24.4565 9.99998 24.4565C11.0869 24.5 11.6087 21.587 11.8261 16.8913C12.3913 16.5 13 15.9783 13.7391 15.1957C17.3478 11.3696 20.0869 8.1087 19.3043 7.41304C19.1739 7.28261 17.8261 7.1087 17.8261 7.1087Z" fill="#ED8C00"/>
</g>
<defs>
<clipPath id="clip0_68_213">
<rect width="19.4783" height="24" fill="white" transform="translate(0 0.5)"/>
</clipPath>
</defs>
</svg>
