<svg width="30" height="36" viewBox="0 0 30 36" fill="none" xmlns="http://www.w3.org/2000/svg">
<g clip-path="url(#clip0_46_171)">
<path d="M9.30513 3.50847L7.57632 4.11864C5.49157 5.13559 6.10174 6.76271 6.10174 6.8644L6.8136 9.25423C7.57632 10.6271 9.30513 11.1356 10.678 10.3729L11.6441 9.8644C13.017 9.10169 13.5763 7.8305 12.7628 5.99999C12 4.11864 9.30513 3.50847 9.30513 3.50847Z" fill="#ED8C00"/>
<path d="M25.7797 15.6102L23.4916 16.5763C22.2204 17.4915 21.8644 19.2712 22.7797 20.5424L23.3899 21.4576C24.3051 22.7288 25.6272 23.1356 27.356 22.1695C29.0848 21.2034 29.3899 18.4576 29.3899 18.4576L28.6272 16.7797C27.4068 14.8475 25.8305 15.5593 25.7797 15.6102Z" fill="#ED8C00"/>
<path d="M8.8983 16.0678C8.49152 14.0339 6.50847 12.7119 4.47458 13.1186L2.28814 14.0847C1.67797 14.2881 1.27119 14.6949 1.01695 15.2542C0.559322 16.1186 0 17.3898 0 17.4407L2.69492 21.5593L6.20339 21.9152C8.23729 21.5085 9.55932 19.5254 9.15254 17.4915L8.8983 16.0678Z" fill="#ED8C00"/>
<path d="M27.661 4.88136L26.9492 3.1017C25.8814 0.55933 22.9831 -0.661009 20.4407 0.35594L17.7458 2.59323C17.0847 3.1017 16.7797 3.81357 16.7797 4.57628L16.8305 8.28814C17.5932 10.8305 20.8983 12.661 21.0508 12.6102L24.9661 11.3898C27.4576 10.3729 28.7288 7.42374 27.661 4.88136Z" fill="#ED8C00"/>
<path d="M14.4407 13.4237C13.5763 15.5085 13.322 20.8475 13.2203 25.5763C13.0678 30.3051 14.339 35.0847 14.339 35.0847C14.339 35.0847 15.6102 36 15.9661 36C17.2373 36.0508 17.6949 31.983 17.8475 25.7288C18 19.4746 15.8644 12.7627 15.8644 12.7627C15.8644 12.7627 14.7458 12.7627 14.4407 13.4237Z" fill="#ED8C00"/>
</g>
<defs>
<clipPath id="clip0_46_171">
<rect width="29.4407" height="36" fill="white"/>
</clipPath>
</defs>
</svg>
