<svg width="24" height="25" viewBox="0 0 24 25" fill="none" xmlns="http://www.w3.org/2000/svg">
<g clip-path="url(#clip0_68_128)">
<path d="M13.2784 12.0046C13.5549 11.8632 13.863 11.7885 14.1825 11.7885C14.7121 11.7885 15.21 11.9941 15.5853 12.3674L16.3932 11.5595C18.3926 12.2604 20.7051 11.8117 22.3035 10.2134C23.6484 8.86855 24.1787 7.01817 23.8956 5.27398C23.8644 5.0819 23.7284 4.92348 23.5433 4.86371C23.3582 4.80386 23.155 4.85249 23.0174 4.99012L21.8178 6.18976C20.8409 7.16669 19.2568 7.16669 18.2799 6.18976C17.3029 5.21282 17.3029 3.62878 18.2799 2.65185L19.4795 1.45221C19.6171 1.31458 19.6662 1.11137 19.6063 0.926163C19.5464 0.74088 19.3877 0.605213 19.1956 0.574018C17.4515 0.290894 15.601 0.821281 14.2562 2.16616C12.6341 3.78828 12.1975 6.14563 12.9436 8.16508L11.1913 9.91737L13.2784 12.0046Z" fill="#ED8C00"/>
<path d="M10.0853 15.1799L8.00692 13.1015L0.73927 20.3691C-0.205733 21.3141 -0.205733 22.8462 0.73927 23.7912C1.68427 24.7362 3.2164 24.7362 4.16141 23.7912L10.4266 17.5261C9.79467 16.8909 9.68078 15.9318 10.0853 15.1799Z" fill="#ED8C00"/>
<path d="M14.7208 13.2395C14.5721 13.0909 14.3773 13.0166 14.1825 13.0166C13.9877 13.0166 13.7929 13.0909 13.6443 13.2395L13.2104 13.6734L5.48203 5.94503L5.84327 5.5838C6.1724 5.25474 6.13155 4.70888 5.7564 4.43264L2.60322 2.11041C2.3002 1.8873 1.87969 1.91898 1.61359 2.18508L0.27477 3.52398C0.00867561 3.79008 -0.0230101 4.21067 0.2001 4.51361L2.52224 7.66679C2.79849 8.04186 3.34403 8.08312 3.67341 7.75366L4.03464 7.39234L11.763 15.1207L11.2986 15.5851C11.0013 15.8824 11.0013 16.3643 11.2986 16.6616L18.4282 23.7912C19.3732 24.7362 20.9054 24.7362 21.8504 23.7912C22.7954 22.8462 22.7954 21.3141 21.8504 20.3691L14.7208 13.2395Z" fill="#ED8C00"/>
</g>
<defs>
<clipPath id="clip0_68_128">
<rect width="24" height="24" fill="white" transform="translate(0 0.5)"/>
</clipPath>
</defs>
</svg>
