<svg width="24" height="25" viewBox="0 0 24 25" fill="none" xmlns="http://www.w3.org/2000/svg">
<g clip-path="url(#clip0_68_148)">
<path d="M15.5705 20.75H8.42954C8.12626 20.75 7.8797 20.9966 7.8797 21.2998V24.5H16.1203V21.2998C16.1203 20.9966 15.8738 20.75 15.5705 20.75Z" fill="#ED8C00"/>
<path d="M0.703125 5.18773H7.77234C7.89984 5.18773 8.025 5.15619 8.13422 5.09652L10.478 3.81805C10.8697 3.60495 10.937 3.11202 10.6134 2.81788L8.26969 0.687078C8.13797 0.567312 7.95891 0.5 7.77234 0.5H0.703125C0.315 0.5 0 0.786359 0 1.13923V4.5485C0 4.90133 0.315 5.18773 0.703125 5.18773Z" fill="#ED8C00"/>
<path d="M21.6416 8.30644H21.2117C22.5136 7.53497 23.3859 6.11658 23.3859 4.49391C23.3859 2.76436 22.3947 1.26675 20.9491 0.537889C20.7126 0.418639 20.4332 0.594561 20.4336 0.859546L20.4332 4.09031L18.9566 5.037L17.4809 4.09003V0.859592C17.4812 0.594608 17.2018 0.418686 16.9653 0.537936C15.5198 1.2668 14.5279 2.76441 14.5286 4.49395C14.5286 6.28969 15.5974 7.83544 17.1334 8.53087V13.4627H20.7811V9.71273H21.6416C22.1666 9.71273 22.5938 10.1399 22.5938 10.6649V14.869H1.40625V10.6649C1.40625 10.1399 1.83333 9.71273 2.35838 9.71273H3.04688V13.4627H6.79688V6.59362H3.04688V8.30644H2.35838C1.05792 8.30644 0 9.36441 0 10.6648V15.5721V20.1733C0 22.5588 1.94109 24.4999 4.32656 24.4999H6.47344V21.2997C6.47344 20.2211 7.35094 19.3436 8.42953 19.3436H15.5705C16.6491 19.3436 17.5266 20.2211 17.5266 21.2997V24.4999H19.6734C22.0589 24.4999 24 22.5588 24 20.1733V15.5721V10.6648C24 9.36441 22.9421 8.30644 21.6416 8.30644Z" fill="#ED8C00"/>
<path d="M8.94281 6.92703V7.9775H10.8384C11.227 7.9775 11.5416 8.29203 11.5416 8.68063C11.5416 9.06875 11.227 9.38375 10.8384 9.38375H8.94281V10.6775H10.8384C11.227 10.6775 11.5416 10.992 11.5416 11.3806C11.5416 11.7688 11.227 12.0838 10.8384 12.0838H8.94281V13.4628H14.1197V6.92703C14.1197 6.53891 13.8052 6.22391 13.4166 6.22391H9.64594C9.25734 6.22391 8.94281 6.53891 8.94281 6.92703Z" fill="#ED8C00"/>
</g>
<defs>
<clipPath id="clip0_68_148">
<rect width="24" height="24" fill="white" transform="translate(0 0.5)"/>
</clipPath>
</defs>
</svg>
