<svg width="36" height="36" viewBox="0 0 36 36" fill="none" xmlns="http://www.w3.org/2000/svg">
<g clip-path="url(#clip0_235_895)">
<path d="M18 36C13.1921 36 8.67178 34.1277 5.27206 30.7279C1.87234 27.3282 0 22.8079 0 18C0 13.1921 1.87234 8.67178 5.27206 5.27206C8.67178 1.87234 13.1921 0 18 0C22.8079 0 27.3282 1.87234 30.7279 5.27206C34.1277 8.67178 36 13.1921 36 18C36 22.8079 34.1277 27.3282 30.7279 30.7279C27.3282 34.1277 22.8079 36 18 36ZM18 2.8125C9.62567 2.8125 2.8125 9.62567 2.8125 18C2.8125 26.3743 9.62567 33.1875 18 33.1875C26.3743 33.1875 33.1875 26.3743 33.1875 18C33.1875 9.62567 26.3743 2.8125 18 2.8125ZM25.3326 18L15.6094 8.27682L13.6206 10.2656L21.3549 18L13.6206 25.7344L15.6094 27.7232L25.3326 18Z" fill="#F3EDD7"/>
</g>
<defs>
<clipPath id="clip0_235_895">
<rect width="36" height="36" fill="white"/>
</clipPath>
</defs>
</svg>
