<svg width="36" height="36" viewBox="0 0 36 36" fill="none" xmlns="http://www.w3.org/2000/svg">
<g clip-path="url(#clip0_235_898)">
<path d="M18 -1.57361e-06C22.8079 -1.15329e-06 27.3282 1.87234 30.7279 5.27206C34.1277 8.67178 36 13.1921 36 18C36 22.8079 34.1277 27.3282 30.7279 30.7279C27.3282 34.1277 22.8079 36 18 36C13.1921 36 8.67178 34.1277 5.27206 30.7279C1.87235 27.3282 1.15329e-06 22.8079 1.57361e-06 18C1.99393e-06 13.1921 1.87235 8.67178 5.27207 5.27206C8.67179 1.87234 13.1921 -1.99393e-06 18 -1.57361e-06ZM18 33.1875C26.3743 33.1875 33.1875 26.3743 33.1875 18C33.1875 9.62567 26.3743 2.8125 18 2.8125C9.62567 2.8125 2.8125 9.62567 2.8125 18C2.8125 26.3743 9.62567 33.1875 18 33.1875ZM10.6675 18L20.3906 27.7232L22.3794 25.7344L14.6451 18L22.3794 10.2656L20.3906 8.27682L10.6675 18Z" fill="#F3EDD7"/>
</g>
<defs>
<clipPath id="clip0_235_898">
<rect width="36" height="36" fill="white" transform="translate(36 36) rotate(-180)"/>
</clipPath>
</defs>
</svg>
