<svg width="15" height="15" viewBox="0 0 15 15" fill="none" xmlns="http://www.w3.org/2000/svg">
<g clip-path="url(#clip0_235_923)">
<path d="M13.7544 5.27434H13.2132C13.0652 5.27434 13.0602 5.17741 13.0551 5.12917C12.7713 2.45537 10.5025 0.365295 7.7547 0.365295H7.2453C4.51782 0.365295 2.26229 2.4245 1.9515 5.06992C1.94357 5.13769 1.93941 5.27434 1.81476 5.27434H1.24557C0.872002 5.27434 0 5.66744 0 7.65264V8.6945C0 10.1669 0.872002 10.5064 1.24557 10.5064H3.05647C3.43005 10.5064 3.73569 10.2008 3.73569 9.82723V5.95356C3.73569 5.57998 3.43005 5.27434 3.05647 5.27434C3.05647 5.27434 2.97121 5.26686 2.99294 5.115C3.29177 3.02426 5.07579 1.40408 7.2453 1.40408H7.7547C9.90946 1.40408 11.6983 3.00033 12.0011 5.07241C12.0108 5.13922 12.0472 5.27434 11.9435 5.27434C11.57 5.27434 11.2643 5.57998 11.2643 5.95356V9.82723C11.2643 10.2008 11.57 10.5064 11.9435 10.5064H12.2836C12.3771 10.5064 12.3612 10.5811 12.3528 10.6188C12.0758 11.8696 11.4538 13.2886 10.0577 13.2886H9.02358C8.91805 13.2886 8.892 13.2113 8.87193 13.1746C8.7044 12.8685 8.37952 12.6609 8.00599 12.6609H7.05313C6.50809 12.6609 6.0662 13.1028 6.0662 13.6478C6.0662 14.1929 6.50809 14.6347 7.05313 14.6347H8.00599C8.38459 14.6347 8.71329 14.4215 8.87874 14.1086C8.8932 14.0813 8.90504 14.0244 9.01673 14.0244H10.0577C11.006 14.0244 12.275 13.5532 12.9354 11.3082C13.0058 11.069 13.0629 10.8306 13.1094 10.6008C13.1158 10.5692 13.1198 10.5065 13.2184 10.5065H13.7544C14.128 10.5065 15 10.1669 15 8.69454V7.65269C15 5.69574 14.128 5.27434 13.7544 5.27434Z" fill="#F3EDD7"/>
</g>
<defs>
<clipPath id="clip0_235_923">
<rect width="15" height="15" fill="white"/>
</clipPath>
</defs>
</svg>
