<svg width="24" height="26" viewBox="0 0 24 26" fill="none" xmlns="http://www.w3.org/2000/svg">
<g clip-path="url(#clip0_46_123)">
<path d="M4.2198 16.1691C4.65936 16.1254 5.05496 15.9505 5.40661 15.6446C5.93408 15.12 6.63738 14.4206 6.63738 14.3769L5.75826 10.88L3.38463 9.78719C1.84617 9.56863 0.439576 10.6614 0.263752 12.1913L0.131884 13.2404C1.59517e-05 14.3332 0.483532 15.3823 1.36265 15.9505C2.02199 16.5625 2.94507 16.6936 3.73628 16.3002L4.2198 16.1691Z" fill="#00453B"/>
<path d="M18.3736 8.43212C18.945 8.47583 19.4725 8.30098 19.9121 7.90758L21.1428 6.68365C21.8461 5.32859 21.3187 3.66754 19.956 2.92444L18.989 2.44361C17.6264 1.74423 15.956 2.26877 15.2088 3.62383L14.5494 5.94055C14.5055 6.02797 15.5604 8.16985 15.6044 8.16985L18.3736 8.43212Z" fill="#00453B"/>
<path d="M23.6044 12.0602L23.1209 11.4045C22.4176 10.4429 21.0989 10.2243 20.1758 10.9237L18.9011 12.2351C18.8571 12.2788 18.8132 14.071 18.8571 14.1147L20.6154 15.2512C20.967 15.4697 21.4066 15.5572 21.8461 15.3823L23.0769 14.9452C24.0439 14.3332 24.2637 12.9782 23.6044 12.0602Z" fill="#00453B"/>
<path d="M14.8571 13.0656L14.2417 11.3608C14.2417 11.3171 12.6593 10.4429 12.5714 10.4429L10.7253 11.4482C10.3297 11.6668 10.1099 12.0165 10.022 12.4536L9.80219 13.765C9.93405 14.9015 11.033 15.732 12.1758 15.5571L12.967 15.4697C14.1978 15.2949 15.033 14.2458 14.8571 13.0656Z" fill="#00453B"/>
<path d="M6.72528 9.30637C6.81319 9.3938 9.97803 9.17524 10.022 9.13153L11.8681 5.63459C12.1319 5.15376 12.1758 4.54179 11.9121 4.01725L10.9451 1.65682C9.62638 0.0831968 7.25275 -0.0916502 5.71429 1.2197L4.61539 2.13765C3.03297 3.449 2.85715 5.80943 4.17583 7.33934L6.72528 9.30637Z" fill="#00453B"/>
<path d="M6.63733 17.5679C6.06591 17.5242 5.53843 17.699 5.09887 18.0924L3.8681 19.3163C3.16481 20.6714 3.69228 22.3324 5.05492 23.0755L6.02195 23.5564C7.38459 24.2558 9.05492 23.7312 9.80217 22.3762L10.4615 20.0594C10.5055 19.972 9.45052 17.8301 9.40656 17.8301L6.63733 17.5679Z" fill="#00453B"/>
<path d="M18.2857 16.6937C18.1978 16.6062 15.0329 16.8248 14.989 16.8685L13.1428 20.3654C12.8791 20.8463 12.8351 21.4582 13.0989 21.9828L14.1099 24.3432C15.4286 25.9168 17.8022 26.0917 19.3406 24.7803L20.4395 23.8624C22.022 22.551 22.1978 20.1906 20.8791 18.6607L18.2857 16.6937Z" fill="#00453B"/>
</g>
<defs>
<clipPath id="clip0_46_123">
<rect width="24" height="25.3091" fill="white" transform="translate(0 0.345459)"/>
</clipPath>
</defs>
</svg>
