<svg width="24" height="24" viewBox="0 0 24 24" fill="none" xmlns="http://www.w3.org/2000/svg">
<g clip-path="url(#clip0_89_4890)">
<path d="M16.4663 2.31619C16.1606 2.01052 15.6653 2.01052 15.3596 2.31619L15.1303 2.5455V0.782625C15.1303 0.350297 14.7798 0 14.3477 0C13.9156 0 13.5651 0.350297 13.5651 0.782625V2.5455L13.3358 2.31619C13.0301 2.01052 12.5349 2.01052 12.2291 2.31619C11.9235 2.62162 11.9235 3.11738 12.2291 3.42286L13.7943 4.98806C14.0976 5.2913 14.5887 5.30039 14.901 4.98806L16.4662 3.42286C16.7719 3.11742 16.7719 2.62167 16.4663 2.31619Z" fill="white"/>
<path d="M7.04344 17.7395C13.6817 17.7395 11.041 17.7395 21.6521 17.7395C22.0347 17.7395 22.3613 17.4628 22.424 17.0855L23.9892 7.69423C24.0686 7.21611 23.6999 6.78298 23.2173 6.78298H5.78733L5.20312 3.76466C5.13173 3.39683 4.8098 3.13086 4.43475 3.13086H0.782625C0.350578 3.13081 0 3.48111 0 3.91344C0 4.34577 0.350578 4.69606 0.782625 4.69606H3.78923C3.89133 5.22369 5.952 15.8705 6.05452 16.4003C5.25455 16.7749 4.69566 17.5819 4.69566 18.5221C4.69566 19.8167 5.74884 20.8647 7.04348 20.8647H7.44858C7.36092 21.1107 7.30439 21.3767 7.30439 21.6525C7.30439 22.9471 8.35758 24.0003 9.65222 24.0003C10.9469 24.0003 12 22.9471 12 21.6525C12 21.3768 11.9435 21.1107 11.8559 20.8647H16.3181C16.2305 21.1107 16.1739 21.3767 16.1739 21.6525C16.1739 22.9471 17.2271 24.0003 18.5218 24.0003C19.8164 24.0003 20.8696 22.9471 20.8696 21.6525C20.8696 21.3768 20.813 21.1159 20.7254 20.8699H21.9131C22.3452 20.8699 22.6957 20.5196 22.6957 20.0872C22.6957 19.6549 22.3452 19.3046 21.9131 19.3046H7.04344C6.61191 19.3046 6.26081 18.9535 6.26081 18.522C6.26081 18.0905 6.61191 17.7395 7.04344 17.7395ZM18.2608 10.696C18.2608 10.2637 18.6114 9.91339 19.0434 9.91339C19.4755 9.91339 19.8261 10.2637 19.8261 10.696V13.8264C19.8261 14.2587 19.4755 14.609 19.0434 14.609C18.6114 14.609 18.2608 14.2587 18.2608 13.8264V10.696ZM13.5652 10.696C13.5652 10.2637 13.9157 9.91339 14.3478 9.91339C14.7799 9.91339 15.1304 10.2637 15.1304 10.696V13.8264C15.1304 14.2587 14.7799 14.609 14.3478 14.609C13.9157 14.609 13.5652 14.2587 13.5652 13.8264V10.696ZM8.86955 10.696C8.86955 10.2637 9.22013 9.91339 9.65217 9.91339C10.0842 9.91339 10.4348 10.2637 10.4348 10.696V13.8264C10.4348 14.2587 10.0842 14.609 9.65217 14.609C9.22013 14.609 8.86955 14.2587 8.86955 13.8264V10.696ZM18.5217 20.8699C18.9532 20.8699 19.3043 21.221 19.3043 21.6525C19.3043 22.0841 18.9532 22.4352 18.5217 22.4352C18.0901 22.4352 17.739 22.0841 17.739 21.6525C17.739 21.221 18.0901 20.8699 18.5217 20.8699ZM9.65213 20.8699C10.0837 20.8699 10.4347 21.221 10.4347 21.6525C10.4347 22.0841 10.0837 22.4352 9.65213 22.4352C9.22059 22.4352 8.8695 22.0841 8.8695 21.6525C8.8695 21.221 9.22059 20.8699 9.65213 20.8699Z" fill="white"/>
</g>
<defs>
<clipPath id="clip0_89_4890">
<rect width="24" height="24" fill="white"/>
</clipPath>
</defs>
</svg>
