<svg width="24" height="24" viewBox="0 0 24 24" fill="none" xmlns="http://www.w3.org/2000/svg">
<g clip-path="url(#clip0_235_878)">
<path d="M23.8337 6.62365C23.6992 6.46573 23.5028 6.37507 23.2968 6.37507H5.67907L4.28778 1.26853C4.20401 0.962294 3.92661 0.750092 3.60936 0.750092H0.703122C0.314483 0.750092 0 1.06457 0 1.45321C0 1.84185 0.314483 2.15634 0.703122 2.15634H3.07241C8.40751 21.7027 6.56744 14.9611 6.9655 16.4195C6.2276 16.751 5.71873 17.4745 5.71873 18.3281C5.71873 19.3005 6.38332 20.113 7.2798 20.3561C7.18188 20.5991 7.12497 20.863 7.12497 21.1406C7.12497 22.3038 8.07119 23.25 9.23434 23.25C10.3975 23.25 11.3437 22.3038 11.3437 21.1406C11.3437 20.893 11.293 20.6585 11.2142 20.4375H17.0982C17.0194 20.6585 16.9687 20.893 16.9687 21.1406C16.9687 22.3038 17.9149 23.25 19.078 23.25C20.2412 23.25 21.1874 22.3038 21.1874 21.1406C21.1874 19.9775 20.2412 19.0313 19.078 19.0313H7.82809C7.44081 19.0313 7.12497 18.7161 7.12497 18.3281C7.12497 17.6732 7.96905 17.5351 7.82809 17.6113C7.96872 17.6113 8.44412 17.5525 21.9592 16.2154C22.2765 16.1838 22.5319 15.9448 22.5841 15.631L23.9903 7.19355C24.0246 6.9896 23.967 6.78157 23.8337 6.62365ZM9.93746 21.1406C9.93746 21.5286 9.62162 21.8438 9.23434 21.8438C8.84706 21.8438 8.53122 21.5286 8.53122 21.1406C8.53122 20.7527 8.84706 20.4375 9.23434 20.4375C9.62162 20.4375 9.93746 20.7527 9.93746 21.1406ZM19.078 21.8438C18.6908 21.8438 18.3749 21.5286 18.3749 21.1406C18.3749 20.7527 18.6908 20.4375 19.078 20.4375C19.4653 20.4375 19.7812 20.7527 19.7812 21.1406C19.7812 21.5286 19.4653 21.8438 19.078 21.8438ZM11.3437 12.7032C11.3437 13.0918 11.0292 13.4063 10.6406 13.4063C10.2519 13.4063 9.93746 13.0918 9.93746 12.7032V9.89068C9.93746 9.50204 10.2519 9.18756 10.6406 9.18756C11.0292 9.18756 11.3437 9.50204 11.3437 9.89068V12.7032ZM15.5624 12.7032C15.5624 13.0918 15.248 13.4063 14.8593 13.4063C14.4707 13.4063 14.1562 13.0918 14.1562 12.7032V9.89068C14.1562 9.50204 14.4707 9.18756 14.8593 9.18756C15.248 9.18756 15.5624 9.50204 15.5624 9.89068V12.7032ZM19.7812 12.7032C19.7812 13.0918 19.4667 13.4063 19.078 13.4063C18.6894 13.4063 18.3749 13.0918 18.3749 12.7032V9.89068C18.3749 9.50204 18.6894 9.18756 19.078 9.18756C19.4667 9.18756 19.7812 9.50204 19.7812 9.89068V12.7032Z" fill="#F3EDD7"/>
<path d="M21.1875 2.85942C21.1875 2.47078 20.873 2.15629 20.4844 2.15629H19.3693L19.5753 1.95028C19.8499 1.67564 19.8499 1.23065 19.5753 0.956011C19.3006 0.68137 18.8557 0.68137 18.581 0.956011L17.6719 1.86515L16.7627 0.956011C16.4881 0.68137 16.0431 0.68137 15.7685 0.956011C15.4938 1.23065 15.4938 1.67564 15.7685 1.95028L15.9745 2.15629H14.8594C14.4707 2.15629 14.1562 2.47078 14.1562 2.85942V4.96879H21.1875V2.85942Z" fill="#F3EDD7"/>
<path d="M12.75 3.56253H7.82812C7.43948 3.56253 7.125 3.87701 7.125 4.26566V4.96878H12.75V3.56253Z" fill="#F3EDD7"/>
</g>
<defs>
<clipPath id="clip0_235_878">
<rect width="24" height="24" fill="white"/>
</clipPath>
</defs>
</svg>
