<svg width="15" height="15" viewBox="0 0 15 15" fill="none" xmlns="http://www.w3.org/2000/svg">
<path d="M9.71939 8.12259L8.46311 9.38312C7.95366 9.89435 7.0573 9.90536 6.53684 9.38312L5.2805 8.12259L0.768311 12.6494C0.93627 12.7271 1.12146 12.7734 1.31833 12.7734H13.6816C13.8785 12.7734 14.0636 12.7271 14.2315 12.6495L9.71939 8.12259Z" fill="#004D47"/>
<path d="M13.6817 2.22656H1.31839C1.12152 2.22656 0.936333 2.27291 0.768433 2.35058L5.59002 7.18816C5.59035 7.18849 5.59073 7.18855 5.59105 7.18887C5.59137 7.18919 5.59143 7.18963 5.59143 7.18963L7.15919 8.76258C7.32572 8.9291 7.67441 8.9291 7.84093 8.76258L9.40837 7.18989C9.40837 7.18989 9.40875 7.18919 9.40908 7.18887C9.40908 7.18887 9.40978 7.18849 9.4101 7.18816L14.2316 2.35055C14.0637 2.27285 13.8785 2.22656 13.6817 2.22656Z" fill="#004D47"/>
<path d="M0.140215 2.96521C0.0533203 3.14093 0 3.33599 0 3.54494V11.4551C0 11.664 0.0532617 11.8591 0.140186 12.0348L4.6602 7.50016L0.140215 2.96521Z" fill="#004D47"/>
<path d="M14.8598 2.96515L10.3398 7.50016L14.8598 12.0349C14.9467 11.8592 15 11.6641 15 11.4551V3.54493C15 3.33593 14.9467 3.14087 14.8598 2.96515Z" fill="#004D47"/>
</svg>
