<svg width="24" height="24" viewBox="0 0 24 24" fill="none" xmlns="http://www.w3.org/2000/svg">
<g clip-path="url(#clip0_235_974)">
<path d="M15.8063 18.7782H8.27502C7.44446 18.7782 6.7688 19.4539 6.7688 20.2844V24H17.3126V20.2844C17.3126 19.4539 16.6369 18.7782 15.8063 18.7782Z" fill="#004D47"/>
<path d="M9.52551 14.5153C9.4054 14.3954 9.24664 14.3236 9.07837 14.3113V17.3719H15.0033V14.3113C14.835 14.3236 14.6761 14.3954 14.5556 14.5159C13.884 15.1875 12.991 15.5574 12.0408 15.5574C11.0907 15.5574 10.1977 15.1875 9.52551 14.5153Z" fill="#004D47"/>
<path d="M16.4095 14.4468V17.4351C17.727 17.7136 18.7189 18.8851 18.7189 20.2844V24H21.0784C21.4664 24 21.7815 23.6851 21.7815 23.2969V21.0375C21.7815 17.7924 19.4714 15.076 16.4095 14.4468Z" fill="#004D47"/>
<path d="M7.67212 14.4468C4.61023 15.076 2.30017 17.7924 2.30017 21.0375V23.2969C2.30017 23.6851 2.61511 24 3.0033 24H5.36261V20.2844C5.36261 18.8851 6.35449 17.7136 7.67212 17.4351V14.4468Z" fill="#004D47"/>
<path d="M21.8326 3.61578H18.0132C17.9601 1.61298 16.3154 0 14.3002 0H9.78149C7.76605 0 6.12158 1.61298 6.0683 3.61578H2.25C1.86182 3.61578 1.54688 3.93127 1.54688 4.31946C1.54688 5.59442 2.58051 6.62805 3.85547 6.62805H20.2271C21.5021 6.62805 22.5357 5.59442 22.5357 4.31946C22.5357 3.93127 22.2206 3.61578 21.8326 3.61578Z" fill="#004D47"/>
<path d="M17.2626 8.23444V8.0343H6.81885V8.23444C6.81885 11.1229 9.15692 13.4562 12.0408 13.4562C14.9293 13.4562 17.2626 11.1183 17.2626 8.23444Z" fill="#004D47"/>
</g>
<defs>
<clipPath id="clip0_235_974">
<rect width="24" height="24" fill="white"/>
</clipPath>
</defs>
</svg>
