<svg width="19" height="18" viewBox="0 0 19 18" fill="none" xmlns="http://www.w3.org/2000/svg">
<g clip-path="url(#clip0_235_1004)">
<path d="M15.8969 12.5281C14.8095 11.5981 13.706 11.0347 12.6319 11.9633L11.9906 12.5246C11.5214 12.932 10.649 14.8356 7.27585 10.9553C3.90344 7.07999 5.91031 6.47659 6.38024 6.07269L7.02508 5.51074C8.09349 4.58 7.69029 3.40834 6.91971 2.20225L6.4547 1.47171C5.68061 0.268434 4.83768 -0.52181 3.76646 0.407517L3.18765 0.913273C2.71421 1.25817 1.39081 2.37926 1.0698 4.50906C0.683458 7.06453 1.90219 9.99089 4.69438 13.2017C7.48307 16.414 10.2134 18.0275 12.7998 17.9994C14.9493 17.9762 16.2474 16.8228 16.6534 16.4035L17.2343 15.897C18.3027 14.9684 17.6389 14.0229 16.5509 13.0908L15.8969 12.5281Z" fill="#004D47"/>
</g>
<defs>
<clipPath id="clip0_235_1004">
<rect width="18.7758" height="17.9998" fill="white"/>
</clipPath>
</defs>
</svg>
