<svg width="50" height="39" viewBox="0 0 50 39" fill="none" xmlns="http://www.w3.org/2000/svg">
<g clip-path="url(#clip0_89_5217)">
<path fill-rule="evenodd" clip-rule="evenodd" d="M8.97116e-06 16.7679C-0.000482529 16.6691 0.0187843 16.6332 0.166234 16.6348C0.922555 16.643 1.67966 16.6269 2.43549 16.6448C3.54746 16.6711 4.55789 16.9173 5.38203 17.5142C5.94932 17.925 6.30586 18.4279 6.44623 19.0114C6.72579 20.1738 6.29455 21.1602 5.1294 21.9488C4.4933 22.3793 3.73108 22.5957 2.88905 22.6473C1.961 22.7042 1.03029 22.659 0.101061 22.6744C-0.0101159 22.6762 0.00226987 22.6306 0.00236817 22.5775C0.00315457 21.9825 0.00482567 17.7302 8.97116e-06 16.7679ZM1.54715 21.5393C1.54656 21.6211 1.56907 21.6472 1.68291 21.6461C1.99275 21.643 2.30318 21.6454 2.61115 21.6192C3.17353 21.5713 3.701 21.4487 4.11268 21.1356C4.80472 20.6094 5.05902 19.9695 4.86684 19.2455C4.67329 18.5163 4.12104 18.0024 3.1634 17.7769C2.69697 17.6671 2.21196 17.6739 1.7292 17.6693C1.59168 17.668 1.54401 17.6887 1.54558 17.8034C1.55413 18.422 1.55177 20.9127 1.54715 21.5393Z" fill="#004D47"/>
<path fill-rule="evenodd" clip-rule="evenodd" d="M46.941 20.1414C47.7728 20.9869 48.5914 21.819 49.4299 22.6712C49.2994 22.6712 49.1974 22.6712 49.0953 22.6712C48.6276 22.6712 48.1597 22.6657 47.6922 22.6745C47.5505 22.6772 47.4792 22.6371 47.4058 22.5535C46.7574 21.8149 46.1034 21.0791 45.4511 20.3424C45.4423 20.3324 45.4316 20.323 45.4257 20.3121C45.3863 20.2385 45.3015 20.2434 45.2264 20.2551C45.1436 20.2681 45.1832 20.3272 45.183 20.3643C45.1804 21.0873 45.1769 21.8102 45.1853 22.5331C45.1866 22.6533 45.1397 22.6767 44.9927 22.6739C44.5831 22.6659 44.1729 22.6688 43.7631 22.6727C43.6597 22.6738 43.6178 22.6595 43.6179 22.5703C43.6213 20.6251 43.6208 18.68 43.6191 16.7349C43.6191 16.6689 43.6284 16.6333 43.7356 16.6351C44.618 16.649 45.5014 16.6083 46.3827 16.6597C46.9948 16.6954 47.5704 16.8212 48.041 17.1383C48.6054 17.5187 48.7644 18.0178 48.7259 18.5675C48.6695 19.3761 48.0897 19.91 47.0567 20.109C47.022 20.1156 46.9889 20.1278 46.941 20.1414ZM45.1812 18.5059C45.1812 18.773 45.1875 19.0402 45.1778 19.3071C45.1743 19.4007 45.2135 19.419 45.3265 19.4155C45.5568 19.4084 45.7871 19.4122 46.0176 19.3937C46.6919 19.3396 47.0755 19.0434 47.1255 18.53C47.1658 18.1167 46.8878 17.804 46.3705 17.6751C46.0302 17.5903 45.6792 17.5995 45.3286 17.5943C45.2141 17.5926 45.175 17.6116 45.1782 17.7046C45.1871 17.9716 45.1812 18.2387 45.1812 18.5059Z" fill="#004D47"/>
<path fill-rule="evenodd" clip-rule="evenodd" d="M38.2181 16.7545C38.2177 16.664 38.2419 16.6344 38.3703 16.6348C39.7365 16.6387 41.1027 16.6381 42.4689 16.6354C42.5752 16.6352 42.6137 16.6511 42.6112 16.7386C42.6034 17.018 42.6035 17.2977 42.6112 17.5771C42.6136 17.6614 42.5724 17.6727 42.4766 17.6724C41.6307 17.6699 40.7846 17.674 39.9387 17.6681C39.7949 17.6671 39.7662 17.6989 39.7687 17.8015C39.7771 18.1648 39.7761 18.5283 39.769 18.8916C39.7672 18.9824 39.8007 19.0044 39.918 19.0038C40.7324 18.9999 41.5469 19.0043 42.3613 18.9991C42.49 18.9983 42.5147 19.0284 42.5121 19.1182C42.5046 19.3857 42.5047 19.6533 42.5122 19.9208C42.5146 20.0054 42.4828 20.0255 42.3736 20.025C41.5644 20.0214 40.7552 20.0264 39.9461 20.02C39.7952 20.0188 39.7673 20.0551 39.7689 20.1602C39.7761 20.6154 39.7752 21.0706 39.7693 21.5259C39.7681 21.6164 39.7928 21.6463 39.9214 21.6455C40.7673 21.6406 41.6134 21.6453 42.4593 21.6405C42.5856 21.6398 42.614 21.6672 42.6113 21.7585C42.6033 22.0339 42.6059 22.3097 42.6102 22.5852C42.6113 22.6512 42.59 22.6736 42.4979 22.6734C41.1107 22.6713 39.7234 22.6704 38.3362 22.6744C38.2099 22.6748 38.2199 22.6278 38.22 22.5652C38.2209 21.5906 38.2223 17.7169 38.2181 16.7545Z" fill="#004D47"/>
<path fill-rule="evenodd" clip-rule="evenodd" d="M10.3643 20.9284C10.5732 21.2255 10.849 21.4675 11.2549 21.603C11.6911 21.7487 12.1402 21.7995 12.5931 21.6456C13.0046 21.5059 13.2269 21.2565 13.2446 20.9169C13.2621 20.5806 13.0253 20.3553 12.642 20.2098C12.2013 20.0426 11.7247 19.9433 11.2744 19.7947C10.8343 19.6494 10.4151 19.4813 10.1112 19.1837C9.92555 19.002 9.82253 18.7941 9.78656 18.5716C9.62613 17.5805 10.3403 16.8717 11.4235 16.6387C12.555 16.3954 13.574 16.6092 14.4867 17.1543C14.5541 17.1946 14.5772 17.223 14.5126 17.2845C14.2802 17.5057 14.0531 17.7302 13.8335 17.9587C13.7667 18.0283 13.7376 18.0086 13.6768 17.9593C13.4285 17.7578 13.1435 17.5948 12.7742 17.5546C12.308 17.504 11.8671 17.5493 11.5426 17.843C11.2525 18.1055 11.3169 18.4362 11.6834 18.634C12.0114 18.8111 12.3937 18.9003 12.7636 19.0089C13.1104 19.1108 13.4491 19.2247 13.7733 19.3644C14.4348 19.6494 14.7983 20.0674 14.8457 20.6533C14.9256 21.6424 14.2413 22.4779 12.9669 22.7267C11.6071 22.9923 10.2784 22.6981 9.40613 21.7195C9.37016 21.6791 9.36622 21.6555 9.41577 21.6198C9.73161 21.3921 10.0445 21.162 10.3643 20.9284Z" fill="#004D47"/>
<path fill-rule="evenodd" clip-rule="evenodd" d="M29.8994 16.637C30.4384 16.637 30.9532 16.6396 31.4678 16.6348C31.5708 16.6338 31.611 16.6619 31.6466 16.7304C32.1203 17.6419 33.4854 20.2519 33.6951 20.6547C33.7908 20.5744 35.1547 17.9453 35.7977 16.7263C35.8234 16.6777 35.8417 16.6348 35.9352 16.6354C36.4603 16.6389 36.9855 16.6371 37.5329 16.6371C37.408 16.8651 35.1588 20.9211 34.1577 22.7322C34.1181 22.804 34.0741 22.8274 33.9757 22.8246C33.7764 22.8188 33.5764 22.8192 33.3771 22.8245C33.2883 22.8269 33.2482 22.8022 33.2153 22.7416C32.5983 21.6043 30.4339 17.6302 29.9714 16.7795C29.9476 16.736 29.9268 16.6916 29.8994 16.637Z" fill="#004D47"/>
<path fill-rule="evenodd" clip-rule="evenodd" d="M21.4536 18.27C21.1607 18.0571 20.88 17.8782 20.5447 17.7603C19.2254 17.2967 17.6372 17.7947 17.1287 18.8581C16.737 19.6772 16.8674 20.456 17.6543 21.1212C18.1805 21.5659 18.8757 21.7282 19.6509 21.722C20.266 21.7171 20.7749 21.527 21.2247 21.2249C21.291 21.1805 21.355 21.1342 21.4194 21.0891C21.4753 21.1123 21.4522 21.1484 21.4523 21.1764C21.4541 21.5717 21.4525 21.9671 21.4546 22.3626C21.4549 22.4226 21.4432 22.4592 21.3574 22.4906C19.7643 23.0736 17.7489 22.8428 16.5025 21.8731C15.7311 21.273 15.3513 20.5486 15.3273 19.71C15.2867 18.2911 16.5307 17.0537 18.2613 16.6562C19.3231 16.4124 20.3599 16.4591 21.36 16.8405C21.4138 16.861 21.4556 16.8787 21.4552 16.9353C21.4522 17.3704 21.4536 17.8055 21.4536 18.27Z" fill="#004D47"/>
<path fill-rule="evenodd" clip-rule="evenodd" d="M8.7897 22.5404C8.79019 22.6396 8.77083 22.6787 8.62161 22.6754C8.20157 22.666 7.78085 22.6697 7.36052 22.6738C7.25848 22.6748 7.22713 22.6549 7.22722 22.5748C7.23008 20.6298 7.23027 18.6847 7.22693 16.7397C7.22673 16.652 7.26487 16.6348 7.37055 16.6358C7.78567 16.6401 8.20098 16.6422 8.61591 16.6349C8.75333 16.6325 8.79128 16.6576 8.79059 16.7652C8.7844 17.7317 8.78518 21.5819 8.7897 22.5404Z" fill="#004D47"/>
<path fill-rule="evenodd" clip-rule="evenodd" d="M49.7754 17.1097C49.8505 17.186 49.9244 17.2611 50.0001 17.3381C49.9883 17.3381 49.9791 17.3381 49.9699 17.3381C49.9276 17.3381 49.8855 17.3376 49.8432 17.3384C49.8305 17.3387 49.824 17.335 49.8174 17.3275C49.7589 17.2608 49.6998 17.1944 49.6409 17.1279C49.6401 17.127 49.6391 17.1261 49.6386 17.1252C49.6351 17.1184 49.6274 17.1189 49.6207 17.1199C49.6132 17.1211 49.6167 17.1264 49.6167 17.1298C49.6165 17.195 49.6161 17.2603 49.6169 17.3256C49.6171 17.3364 49.6128 17.3386 49.5995 17.3383C49.5626 17.3376 49.5255 17.3379 49.4885 17.3382C49.4792 17.3383 49.4755 17.337 49.4755 17.329C49.4758 17.1534 49.4758 16.9778 49.4757 16.8022C49.4757 16.7962 49.4764 16.7931 49.4862 16.7932C49.5658 16.7944 49.6455 16.7908 49.7251 16.7953C49.7804 16.7985 49.8323 16.8099 49.8749 16.8386C49.9258 16.8729 49.9401 16.918 49.9367 16.9676C49.9316 17.0406 49.8793 17.0888 49.786 17.1068C49.7827 17.1073 49.7796 17.1084 49.7754 17.1097ZM49.6164 16.962C49.6164 16.9861 49.6171 17.0103 49.6161 17.0343C49.6158 17.0428 49.6194 17.0445 49.6296 17.0442C49.6504 17.0435 49.6712 17.0439 49.6919 17.0422C49.7529 17.0373 49.7874 17.0106 49.7919 16.9643C49.7955 16.927 49.7705 16.8987 49.7238 16.8871C49.6931 16.8795 49.6613 16.8803 49.6297 16.8798C49.6194 16.8797 49.6157 16.8813 49.6161 16.8897C49.617 16.9137 49.6164 16.9379 49.6164 16.962Z" fill="#004D47"/>
<path d="M26.1438 22.8565C28.4615 22.8565 30.3403 21.4235 30.3403 19.6558C30.3403 17.8881 28.4615 16.4551 26.1438 16.4551C23.8261 16.4551 21.9473 17.8881 21.9473 19.6558C21.9473 21.4235 23.8261 22.8565 26.1438 22.8565Z" fill="url(#paint0_linear_89_5217)"/>
<path d="M26.1438 22.8565C28.4615 22.8565 30.3403 21.4235 30.3403 19.6558C30.3403 17.8881 28.4615 16.4551 26.1438 16.4551C23.8261 16.4551 21.9473 17.8881 21.9473 19.6558C21.9473 21.4235 23.8261 22.8565 26.1438 22.8565Z" fill="url(#paint1_linear_89_5217)"/>
</g>
<defs>
<linearGradient id="paint0_linear_89_5217" x1="24.3646" y1="16.7561" x2="26.5876" y2="23.0287" gradientUnits="userSpaceOnUse">
<stop offset="0.3831" stop-color="#E45E26"/>
<stop offset="1" stop-color="#F8A020"/>
</linearGradient>
<linearGradient id="paint1_linear_89_5217" x1="24.0396" y1="16.8858" x2="26.7574" y2="23.0798" gradientUnits="userSpaceOnUse">
<stop stop-color="#80391B"/>
<stop offset="0.1105" stop-color="#843B1B" stop-opacity="0.8161"/>
<stop offset="0.2346" stop-color="#92401D" stop-opacity="0.6096"/>
<stop offset="0.3653" stop-color="#A8481F" stop-opacity="0.3922"/>
<stop offset="0.4996" stop-color="#C75323" stop-opacity="0.1687"/>
<stop offset="0.601" stop-color="#E45E26" stop-opacity="0"/>
<stop offset="1" stop-color="#F8A020" stop-opacity="0"/>
</linearGradient>
<clipPath id="clip0_89_5217">
<rect width="50" height="38" fill="white" transform="translate(0 0.65625)"/>
</clipPath>
</defs>
</svg>
