<svg width="30" height="31" viewBox="0 0 30 31" fill="none" xmlns="http://www.w3.org/2000/svg">
<g clip-path="url(#clip0_89_5213)">
<path d="M26.4844 0.65625H3.51562C1.57711 0.65625 0 2.23336 0 4.17188V27.1406C0 29.0791 1.57711 30.6562 3.51562 30.6562H26.4844C28.4229 30.6562 30 29.0791 30 27.1406V4.17188C30 2.23336 28.4229 0.65625 26.4844 0.65625ZM27.6562 27.1406C27.6562 27.7868 27.1305 28.3125 26.4844 28.3125H19.8047V18.7617H23.4252L24.0234 15.1289H19.8047V12.6094C19.8047 11.6147 20.5679 10.8516 21.5625 10.8516H23.9648V7.21875H21.5625C18.5787 7.21875 16.1732 9.63574 16.1732 12.6196V15.1289H12.6562V18.7617H16.1732V28.3125H3.51562C2.86945 28.3125 2.34375 27.7868 2.34375 27.1406V4.17188C2.34375 3.5257 2.86945 3 3.51562 3H26.4844C27.1305 3 27.6562 3.5257 27.6562 4.17188V27.1406Z" fill="#004D47"/>
</g>
<defs>
<clipPath id="clip0_89_5213">
<rect width="30" height="30" fill="white" transform="translate(0 0.65625)"/>
</clipPath>
</defs>
</svg>
