<svg width="30" height="31" viewBox="0 0 30 31" fill="none" xmlns="http://www.w3.org/2000/svg">
<g clip-path="url(#clip0_89_5209)">
<path d="M29.9706 9.47633C29.9003 7.88232 29.6426 6.78645 29.2733 5.83686C28.8924 4.82889 28.3063 3.92647 27.5385 3.17627C26.7883 2.41441 25.8799 1.8224 24.8836 1.44742C23.9286 1.07816 22.8384 0.82039 21.2444 0.75011C19.6385 0.673877 19.1287 0.65625 15.0556 0.65625C10.9825 0.65625 10.4727 0.673877 8.87276 0.744158C7.27874 0.814438 6.18287 1.07244 5.23351 1.44147C4.22532 1.8224 3.32289 2.40845 2.5727 3.17627C1.81083 3.92647 1.21905 4.83485 0.843844 5.83113C0.474585 6.78645 0.216814 7.87636 0.146533 9.47038C0.0703007 11.0763 0.0526733 11.5861 0.0526733 15.6592C0.0526733 19.7322 0.0703007 20.2421 0.140581 21.842C0.210862 23.436 0.468862 24.5319 0.83812 25.4815C1.21905 26.4895 1.81083 27.3919 2.5727 28.1421C3.32289 28.904 4.23127 29.496 5.22756 29.8709C6.18287 30.2402 7.27279 30.498 8.86703 30.5683C10.4668 30.6388 10.9768 30.6562 15.0499 30.6562C19.1229 30.6562 19.6328 30.6388 21.2327 30.5683C22.8267 30.498 23.9226 30.2402 24.872 29.8709C26.8881 29.0914 28.4821 27.4974 29.2616 25.4815C29.6307 24.5262 29.8887 23.436 29.959 21.842C30.0292 20.2421 30.0469 19.7322 30.0469 15.6592C30.0469 11.5861 30.0409 11.0763 29.9706 9.47633ZM27.2691 21.7248C27.2045 23.1899 26.9584 23.9811 26.7533 24.5086C26.2492 25.8155 25.2119 26.8528 23.905 27.3569C23.3775 27.562 22.5806 27.8081 21.1212 27.8724C19.5389 27.9429 19.0643 27.9603 15.0616 27.9603C11.0588 27.9603 10.5783 27.9429 9.00164 27.8724C7.53651 27.8081 6.74534 27.562 6.21789 27.3569C5.56751 27.1165 4.97551 26.7356 4.49499 26.2374C3.99685 25.7509 3.61592 25.1649 3.37554 24.5145C3.17042 23.9871 2.92433 23.1899 2.86 21.7308C2.78949 20.1484 2.77209 19.6736 2.77209 15.6709C2.77209 11.6681 2.78949 11.1876 2.86 9.61117C2.92433 8.14604 3.17042 7.35487 3.37554 6.82742C3.61592 6.17681 3.99685 5.58504 4.50095 5.10429C4.98719 4.60615 5.57324 4.22521 6.22385 3.98507C6.75129 3.77995 7.54842 3.53386 9.00759 3.4693C10.5899 3.39902 11.0647 3.38139 15.0673 3.38139C19.076 3.38139 19.5506 3.39902 21.1272 3.4693C22.5923 3.53386 23.3835 3.77995 23.9109 3.98507C24.5613 4.22521 25.1533 4.60615 25.6338 5.10429C26.132 5.59076 26.5129 6.17681 26.7533 6.82742C26.9584 7.35487 27.2045 8.15176 27.2691 9.61117C27.3393 11.1935 27.357 11.6681 27.357 15.6709C27.357 19.6736 27.3393 20.1425 27.2691 21.7248Z" fill="#004D47"/>
<path d="M15.0556 7.95312C10.801 7.95312 7.34906 11.4049 7.34906 15.6597C7.34906 19.9145 10.801 23.3663 15.0556 23.3663C19.3105 23.3663 22.7622 19.9145 22.7622 15.6597C22.7622 11.4049 19.3105 7.95312 15.0556 7.95312ZM15.0556 20.6588C12.2955 20.6588 10.0566 18.4201 10.0566 15.6597C10.0566 12.8993 12.2955 10.6606 15.0556 10.6606C17.816 10.6606 20.0547 12.8993 20.0547 15.6597C20.0547 18.4201 17.816 20.6588 15.0556 20.6588Z" fill="#004D47"/>
<path d="M24.8663 7.64874C24.8663 8.64228 24.0607 9.44788 23.0669 9.44788C22.0734 9.44788 21.2678 8.64228 21.2678 7.64874C21.2678 6.65497 22.0734 5.84961 23.0669 5.84961C24.0607 5.84961 24.8663 6.65497 24.8663 7.64874Z" fill="#004D47"/>
</g>
<defs>
<clipPath id="clip0_89_5209">
<rect width="30" height="30" fill="white" transform="translate(0 0.65625)"/>
</clipPath>
</defs>
</svg>
